<svg width="615" height="48" viewBox="0 0 615 48" fill="none" xmlns="http://www.w3.org/2000/svg">
<path d="M0 16C0 7.16344 7.16344 0 16 0H599C607.837 0 615 7.16344 615 16V32C615 40.8366 607.837 48 599 48H16C7.16343 48 0 40.8366 0 32V16Z" fill="#292C32"/>
<path d="M51.181 17.333V18.147H47.848V20.732H50.554V21.546H47.848V25H46.847V17.333H51.181ZM52.907 17.993C52.7163 17.993 52.555 17.927 52.423 17.795C52.291 17.663 52.225 17.5017 52.225 17.311C52.225 17.1203 52.291 16.959 52.423 16.827C52.555 16.695 52.7163 16.629 52.907 16.629C53.0903 16.629 53.2443 16.695 53.369 16.827C53.501 16.959 53.567 17.1203 53.567 17.311C53.567 17.5017 53.501 17.663 53.369 17.795C53.2443 17.927 53.0903 17.993 52.907 17.993ZM53.391 18.972V25H52.39V18.972H53.391ZM56.098 19.951C56.274 19.6063 56.5233 19.3387 56.846 19.148C57.176 18.9573 57.5757 18.862 58.045 18.862V19.896H57.781C56.659 19.896 56.098 20.5047 56.098 21.722V25H55.097V18.972H56.098V19.951ZM61.3345 25.099C60.8725 25.099 60.4582 25.022 60.0915 24.868C59.7248 24.7067 59.4352 24.4867 59.2225 24.208C59.0098 23.922 58.8925 23.5957 58.8705 23.229H59.9045C59.9338 23.5297 60.0732 23.7753 60.3225 23.966C60.5792 24.1567 60.9128 24.252 61.3235 24.252C61.7048 24.252 62.0055 24.1677 62.2255 23.999C62.4455 23.8303 62.5555 23.6177 62.5555 23.361C62.5555 23.097 62.4382 22.9027 62.2035 22.778C61.9688 22.646 61.6058 22.5177 61.1145 22.393C60.6672 22.2757 60.3005 22.1583 60.0145 22.041C59.7358 21.9163 59.4938 21.7367 59.2885 21.502C59.0905 21.26 58.9915 20.9447 58.9915 20.556C58.9915 20.248 59.0832 19.9657 59.2665 19.709C59.4498 19.4523 59.7102 19.2507 60.0475 19.104C60.3848 18.95 60.7698 18.873 61.2025 18.873C61.8698 18.873 62.4088 19.0417 62.8195 19.379C63.2302 19.7163 63.4502 20.1783 63.4795 20.765H62.4785C62.4565 20.4497 62.3282 20.1967 62.0935 20.006C61.8662 19.8153 61.5582 19.72 61.1695 19.72C60.8102 19.72 60.5242 19.797 60.3115 19.951C60.0988 20.105 59.9925 20.3067 59.9925 20.556C59.9925 20.754 60.0548 20.919 60.1795 21.051C60.3115 21.1757 60.4728 21.2783 60.6635 21.359C60.8615 21.4323 61.1328 21.5167 61.4775 21.612C61.9102 21.7293 62.2622 21.8467 62.5335 21.964C62.8048 22.074 63.0358 22.2427 63.2265 22.47C63.4245 22.6973 63.5272 22.9943 63.5345 23.361C63.5345 23.691 63.4428 23.988 63.2595 24.252C63.0762 24.516 62.8158 24.725 62.4785 24.879C62.1485 25.0257 61.7672 25.099 61.3345 25.099ZM66.1686 19.797V23.35C66.1686 23.6433 66.2309 23.8523 66.3556 23.977C66.4803 24.0943 66.6966 24.153 67.0046 24.153H67.7416V25H66.8396C66.2823 25 65.8643 24.8717 65.5856 24.615C65.3069 24.3583 65.1676 23.9367 65.1676 23.35V19.797H64.3866V18.972H65.1676V17.454H66.1686V18.972H67.7416V19.797H66.1686ZM76.419 23.295H73.075L72.459 25H71.403L74.175 17.377H75.33L78.091 25H77.035L76.419 23.295ZM76.133 22.481L74.747 18.609L73.361 22.481H76.133ZM79.8161 17.993C79.6255 17.993 79.4641 17.927 79.3321 17.795C79.2001 17.663 79.1341 17.5017 79.1341 17.311C79.1341 17.1203 79.2001 16.959 79.3321 16.827C79.4641 16.695 79.6255 16.629 79.8161 16.629C79.9995 16.629 80.1535 16.695 80.2781 16.827C80.4101 16.959 80.4761 17.1203 80.4761 17.311C80.4761 17.5017 80.4101 17.663 80.2781 17.795C80.1535 17.927 79.9995 17.993 79.8161 17.993ZM80.3001 18.972V25H79.2991V18.972H80.3001ZM81.6322 21.964C81.6322 21.348 81.7568 20.809 82.0062 20.347C82.2555 19.8777 82.5965 19.5147 83.0292 19.258C83.4692 19.0013 83.9605 18.873 84.5032 18.873C84.9725 18.873 85.4088 18.983 85.8122 19.203C86.2155 19.4157 86.5235 19.698 86.7362 20.05V16.86H87.7482V25H86.7362V23.867C86.5382 24.2263 86.2448 24.5233 85.8562 24.758C85.4675 24.9853 85.0128 25.099 84.4922 25.099C83.9568 25.099 83.4692 24.967 83.0292 24.703C82.5965 24.439 82.2555 24.0687 82.0062 23.592C81.7568 23.1153 81.6322 22.5727 81.6322 21.964ZM86.7362 21.975C86.7362 21.5203 86.6445 21.1243 86.4612 20.787C86.2778 20.4497 86.0285 20.193 85.7132 20.017C85.4052 19.8337 85.0642 19.742 84.6902 19.742C84.3162 19.742 83.9752 19.83 83.6672 20.006C83.3592 20.182 83.1135 20.4387 82.9302 20.776C82.7468 21.1133 82.6552 21.5093 82.6552 21.964C82.6552 22.426 82.7468 22.8293 82.9302 23.174C83.1135 23.5113 83.3592 23.7717 83.6672 23.955C83.9752 24.131 84.3162 24.219 84.6902 24.219C85.0642 24.219 85.4052 24.131 85.7132 23.955C86.0285 23.7717 86.2778 23.5113 86.4612 23.174C86.6445 22.8293 86.7362 22.4297 86.7362 21.975ZM96.5304 25L93.3734 21.502V25H92.3724V17.333H93.3734V20.886L96.5414 17.333H97.8064L94.3304 21.172L97.8394 25H96.5304ZM99.4744 17.993C99.2837 17.993 99.1224 17.927 98.9904 17.795C98.8584 17.663 98.7924 17.5017 98.7924 17.311C98.7924 17.1203 98.8584 16.959 98.9904 16.827C99.1224 16.695 99.2837 16.629 99.4744 16.629C99.6577 16.629 99.8117 16.695 99.9364 16.827C100.068 16.959 100.134 17.1203 100.134 17.311C100.134 17.5017 100.068 17.663 99.9364 17.795C99.8117 17.927 99.6577 17.993 99.4744 17.993ZM99.9584 18.972V25H98.9574V18.972H99.9584ZM102.885 19.797V23.35C102.885 23.6433 102.948 23.8523 103.072 23.977C103.197 24.0943 103.413 24.153 103.721 24.153H104.458V25H103.556C102.999 25 102.581 24.8717 102.302 24.615C102.024 24.3583 101.884 23.9367 101.884 23.35V19.797H101.103V18.972H101.884V17.454H102.885V18.972H104.458V19.797H102.885Z" fill="white"/>
<path d="M123.112 20.692C123.416 20.74 123.692 20.864 123.94 21.064C124.196 21.264 124.396 21.512 124.54 21.808C124.692 22.104 124.768 22.42 124.768 22.756C124.768 23.18 124.66 23.564 124.444 23.908C124.228 24.244 123.912 24.512 123.496 24.712C123.088 24.904 122.604 25 122.044 25H118.924V16.636H121.924C122.492 16.636 122.976 16.732 123.376 16.924C123.776 17.108 124.076 17.36 124.276 17.68C124.476 18 124.576 18.36 124.576 18.76C124.576 19.256 124.44 19.668 124.168 19.996C123.904 20.316 123.552 20.548 123.112 20.692ZM120.016 20.248H121.852C122.364 20.248 122.76 20.128 123.04 19.888C123.32 19.648 123.46 19.316 123.46 18.892C123.46 18.468 123.32 18.136 123.04 17.896C122.76 17.656 122.356 17.536 121.828 17.536H120.016V20.248ZM121.948 24.1C122.492 24.1 122.916 23.972 123.22 23.716C123.524 23.46 123.676 23.104 123.676 22.648C123.676 22.184 123.516 21.82 123.196 21.556C122.876 21.284 122.448 21.148 121.912 21.148H120.016V24.1H121.948ZM125.875 21.688C125.875 21.016 126.011 20.428 126.283 19.924C126.555 19.412 126.927 19.016 127.399 18.736C127.879 18.456 128.411 18.316 128.995 18.316C129.571 18.316 130.071 18.44 130.495 18.688C130.919 18.936 131.235 19.248 131.443 19.624V18.424H132.547V25H131.443V23.776C131.227 24.16 130.903 24.48 130.471 24.736C130.047 24.984 129.551 25.108 128.983 25.108C128.399 25.108 127.871 24.964 127.399 24.676C126.927 24.388 126.555 23.984 126.283 23.464C126.011 22.944 125.875 22.352 125.875 21.688ZM131.443 21.7C131.443 21.204 131.343 20.772 131.143 20.404C130.943 20.036 130.671 19.756 130.327 19.564C129.991 19.364 129.619 19.264 129.211 19.264C128.803 19.264 128.431 19.36 128.095 19.552C127.759 19.744 127.491 20.024 127.291 20.392C127.091 20.76 126.991 21.192 126.991 21.688C126.991 22.192 127.091 22.632 127.291 23.008C127.491 23.376 127.759 23.66 128.095 23.86C128.431 24.052 128.803 24.148 129.211 24.148C129.619 24.148 129.991 24.052 130.327 23.86C130.671 23.66 130.943 23.376 131.143 23.008C131.343 22.632 131.443 22.196 131.443 21.7ZM137.597 18.304C138.397 18.304 139.045 18.548 139.541 19.036C140.037 19.516 140.285 20.212 140.285 21.124V25H139.205V21.28C139.205 20.624 139.041 20.124 138.713 19.78C138.385 19.428 137.937 19.252 137.369 19.252C136.793 19.252 136.333 19.432 135.989 19.792C135.653 20.152 135.485 20.676 135.485 21.364V25H134.393V18.424H135.485V19.36C135.701 19.024 135.993 18.764 136.361 18.58C136.737 18.396 137.149 18.304 137.597 18.304ZM144.781 18.316C145.349 18.316 145.845 18.44 146.269 18.688C146.701 18.936 147.021 19.248 147.229 19.624V18.424H148.333V25.144C148.333 25.744 148.205 26.276 147.949 26.74C147.693 27.212 147.325 27.58 146.845 27.844C146.373 28.108 145.821 28.24 145.189 28.24C144.325 28.24 143.605 28.036 143.029 27.628C142.453 27.22 142.113 26.664 142.009 25.96H143.089C143.209 26.36 143.457 26.68 143.833 26.92C144.209 27.168 144.661 27.292 145.189 27.292C145.789 27.292 146.277 27.104 146.653 26.728C147.037 26.352 147.229 25.824 147.229 25.144V23.764C147.013 24.148 146.693 24.468 146.269 24.724C145.845 24.98 145.349 25.108 144.781 25.108C144.197 25.108 143.665 24.964 143.185 24.676C142.713 24.388 142.341 23.984 142.069 23.464C141.797 22.944 141.661 22.352 141.661 21.688C141.661 21.016 141.797 20.428 142.069 19.924C142.341 19.412 142.713 19.016 143.185 18.736C143.665 18.456 144.197 18.316 144.781 18.316ZM147.229 21.7C147.229 21.204 147.129 20.772 146.929 20.404C146.729 20.036 146.457 19.756 146.113 19.564C145.777 19.364 145.405 19.264 144.997 19.264C144.589 19.264 144.217 19.36 143.881 19.552C143.545 19.744 143.277 20.024 143.077 20.392C142.877 20.76 142.777 21.192 142.777 21.688C142.777 22.192 142.877 22.632 143.077 23.008C143.277 23.376 143.545 23.66 143.881 23.86C144.217 24.052 144.589 24.148 144.997 24.148C145.405 24.148 145.777 24.052 146.113 23.86C146.457 23.66 146.729 23.376 146.929 23.008C147.129 22.632 147.229 22.196 147.229 21.7ZM156.178 21.46C156.178 21.668 156.166 21.888 156.142 22.12H150.886C150.926 22.768 151.146 23.276 151.546 23.644C151.954 24.004 152.446 24.184 153.022 24.184C153.494 24.184 153.886 24.076 154.198 23.86C154.518 23.636 154.742 23.34 154.87 22.972H156.046C155.87 23.604 155.518 24.12 154.99 24.52C154.462 24.912 153.806 25.108 153.022 25.108C152.398 25.108 151.838 24.968 151.342 24.688C150.854 24.408 150.47 24.012 150.19 23.5C149.91 22.98 149.77 22.38 149.77 21.7C149.77 21.02 149.906 20.424 150.178 19.912C150.45 19.4 150.83 19.008 151.318 18.736C151.814 18.456 152.382 18.316 153.022 18.316C153.646 18.316 154.198 18.452 154.678 18.724C155.158 18.996 155.526 19.372 155.782 19.852C156.046 20.324 156.178 20.86 156.178 21.46ZM155.05 21.232C155.05 20.816 154.958 20.46 154.774 20.164C154.59 19.86 154.338 19.632 154.018 19.48C153.706 19.32 153.358 19.24 152.974 19.24C152.422 19.24 151.95 19.416 151.558 19.768C151.174 20.12 150.954 20.608 150.898 21.232H155.05ZM158.711 19.492C158.903 19.116 159.175 18.824 159.527 18.616C159.887 18.408 160.323 18.304 160.835 18.304V19.432H160.547C159.323 19.432 158.711 20.096 158.711 21.424V25H157.619V18.424H158.711V19.492ZM169.483 20.692C169.787 20.74 170.063 20.864 170.311 21.064C170.567 21.264 170.767 21.512 170.911 21.808C171.063 22.104 171.139 22.42 171.139 22.756C171.139 23.18 171.031 23.564 170.815 23.908C170.599 24.244 170.283 24.512 169.867 24.712C169.459 24.904 168.975 25 168.415 25H165.295V16.636H168.295C168.863 16.636 169.347 16.732 169.747 16.924C170.147 17.108 170.447 17.36 170.647 17.68C170.847 18 170.947 18.36 170.947 18.76C170.947 19.256 170.811 19.668 170.539 19.996C170.275 20.316 169.923 20.548 169.483 20.692ZM166.387 20.248H168.223C168.735 20.248 169.131 20.128 169.411 19.888C169.691 19.648 169.831 19.316 169.831 18.892C169.831 18.468 169.691 18.136 169.411 17.896C169.131 17.656 168.727 17.536 168.199 17.536H166.387V20.248ZM168.319 24.1C168.863 24.1 169.287 23.972 169.591 23.716C169.895 23.46 170.047 23.104 170.047 22.648C170.047 22.184 169.887 21.82 169.567 21.556C169.247 21.284 168.819 21.148 168.283 21.148H166.387V24.1H168.319ZM175.522 25.108C174.906 25.108 174.346 24.968 173.842 24.688C173.346 24.408 172.954 24.012 172.666 23.5C172.386 22.98 172.246 22.38 172.246 21.7C172.246 21.028 172.39 20.436 172.678 19.924C172.974 19.404 173.374 19.008 173.878 18.736C174.382 18.456 174.946 18.316 175.57 18.316C176.194 18.316 176.758 18.456 177.262 18.736C177.766 19.008 178.162 19.4 178.45 19.912C178.746 20.424 178.894 21.02 178.894 21.7C178.894 22.38 178.742 22.98 178.438 23.5C178.142 24.012 177.738 24.408 177.226 24.688C176.714 24.968 176.146 25.108 175.522 25.108ZM175.522 24.148C175.914 24.148 176.282 24.056 176.626 23.872C176.97 23.688 177.246 23.412 177.454 23.044C177.67 22.676 177.778 22.228 177.778 21.7C177.778 21.172 177.674 20.724 177.466 20.356C177.258 19.988 176.986 19.716 176.65 19.54C176.314 19.356 175.95 19.264 175.558 19.264C175.158 19.264 174.79 19.356 174.454 19.54C174.126 19.716 173.862 19.988 173.662 20.356C173.462 20.724 173.362 21.172 173.362 21.7C173.362 22.236 173.458 22.688 173.65 23.056C173.85 23.424 174.114 23.7 174.442 23.884C174.77 24.06 175.13 24.148 175.522 24.148ZM181.662 19.324V23.2C181.662 23.52 181.73 23.748 181.866 23.884C182.002 24.012 182.238 24.076 182.574 24.076H183.378V25H182.394C181.786 25 181.33 24.86 181.026 24.58C180.722 24.3 180.57 23.84 180.57 23.2V19.324H179.718V18.424H180.57V16.768H181.662V18.424H183.378V19.324H181.662ZM186.033 19.324V23.2C186.033 23.52 186.101 23.748 186.237 23.884C186.373 24.012 186.609 24.076 186.945 24.076H187.749V25H186.765C186.157 25 185.701 24.86 185.397 24.58C185.093 24.3 184.941 23.84 184.941 23.2V19.324H184.089V18.424H184.941V16.768H186.033V18.424H187.749V19.324H186.033ZM190.164 16.12V25H189.072V16.12H190.164ZM198.026 21.46C198.026 21.668 198.014 21.888 197.99 22.12H192.734C192.774 22.768 192.994 23.276 193.394 23.644C193.802 24.004 194.294 24.184 194.87 24.184C195.342 24.184 195.734 24.076 196.046 23.86C196.366 23.636 196.59 23.34 196.718 22.972H197.894C197.718 23.604 197.366 24.12 196.838 24.52C196.31 24.912 195.654 25.108 194.87 25.108C194.246 25.108 193.686 24.968 193.19 24.688C192.702 24.408 192.318 24.012 192.038 23.5C191.758 22.98 191.618 22.38 191.618 21.7C191.618 21.02 191.754 20.424 192.026 19.912C192.298 19.4 192.678 19.008 193.166 18.736C193.662 18.456 194.23 18.316 194.87 18.316C195.494 18.316 196.046 18.452 196.526 18.724C197.006 18.996 197.374 19.372 197.63 19.852C197.894 20.324 198.026 20.86 198.026 21.46ZM196.898 21.232C196.898 20.816 196.806 20.46 196.622 20.164C196.438 19.86 196.186 19.632 195.866 19.48C195.554 19.32 195.206 19.24 194.822 19.24C194.27 19.24 193.798 19.416 193.406 19.768C193.022 20.12 192.802 20.608 192.746 21.232H196.898Z" fill="white"/>
<path d="M35.587 27.4426C35.9434 27.4426 36.2656 27.1641 36.2656 26.7534C36.2656 26.3496 35.9434 26.0711 35.587 26.0711H27.7995C27.5116 26.0711 27.3265 25.8623 27.2853 25.549L27.1757 24.8389H35.6624C36.7455 24.8389 37.3213 24.1775 37.479 23.0776L37.9726 19.7151C37.9863 19.6176 38 19.4993 38 19.4157C38 18.9632 37.7052 18.6499 37.1637 18.6499H26.3051L26.2091 17.9746C26.12 17.3272 25.8458 17 25.0368 17H22.7335C22.3359 17 22 17.3411 22 17.7519C22 18.1556 22.3359 18.4968 22.7335 18.4968H24.7695L25.8046 25.6952C25.9623 26.7812 26.5381 27.4426 27.6213 27.4426H35.587ZM28.1902 31C28.8826 31 29.4379 30.4361 29.4379 29.733C29.4379 29.0298 28.8826 28.4659 28.1902 28.4659C27.4979 28.4659 26.9426 29.0298 26.9426 29.733C26.9426 30.4361 27.4979 31 28.1902 31ZM34.4764 31C35.1688 31 35.7241 30.4361 35.7241 29.733C35.7241 29.0298 35.1688 28.4659 34.4764 28.4659C33.7841 28.4659 33.2219 29.0298 33.2219 29.733C33.2219 30.4361 33.7841 31 34.4764 31Z" fill="white"/>
<path d="M249.112 20.692C249.416 20.74 249.692 20.864 249.94 21.064C250.196 21.264 250.396 21.512 250.54 21.808C250.692 22.104 250.768 22.42 250.768 22.756C250.768 23.18 250.66 23.564 250.444 23.908C250.228 24.244 249.912 24.512 249.496 24.712C249.088 24.904 248.604 25 248.044 25H244.924V16.636H247.924C248.492 16.636 248.976 16.732 249.376 16.924C249.776 17.108 250.076 17.36 250.276 17.68C250.476 18 250.576 18.36 250.576 18.76C250.576 19.256 250.44 19.668 250.168 19.996C249.904 20.316 249.552 20.548 249.112 20.692ZM246.016 20.248H247.852C248.364 20.248 248.76 20.128 249.04 19.888C249.32 19.648 249.46 19.316 249.46 18.892C249.46 18.468 249.32 18.136 249.04 17.896C248.76 17.656 248.356 17.536 247.828 17.536H246.016V20.248ZM247.948 24.1C248.492 24.1 248.916 23.972 249.22 23.716C249.524 23.46 249.676 23.104 249.676 22.648C249.676 22.184 249.516 21.82 249.196 21.556C248.876 21.284 248.448 21.148 247.912 21.148H246.016V24.1H247.948ZM253.375 19.492C253.567 19.116 253.839 18.824 254.191 18.616C254.551 18.408 254.987 18.304 255.499 18.304V19.432H255.211C253.987 19.432 253.375 20.096 253.375 21.424V25H252.283V18.424H253.375V19.492ZM257.324 17.356C257.116 17.356 256.94 17.284 256.796 17.14C256.652 16.996 256.58 16.82 256.58 16.612C256.58 16.404 256.652 16.228 256.796 16.084C256.94 15.94 257.116 15.868 257.324 15.868C257.524 15.868 257.692 15.94 257.828 16.084C257.972 16.228 258.044 16.404 258.044 16.612C258.044 16.82 257.972 16.996 257.828 17.14C257.692 17.284 257.524 17.356 257.324 17.356ZM257.852 18.424V25H256.76V18.424H257.852ZM259.305 21.688C259.305 21.016 259.441 20.428 259.713 19.924C259.985 19.412 260.357 19.016 260.829 18.736C261.309 18.456 261.841 18.316 262.425 18.316C263.001 18.316 263.501 18.44 263.925 18.688C264.349 18.936 264.665 19.248 264.873 19.624V18.424H265.977V25H264.873V23.776C264.657 24.16 264.333 24.48 263.901 24.736C263.477 24.984 262.981 25.108 262.413 25.108C261.829 25.108 261.301 24.964 260.829 24.676C260.357 24.388 259.985 23.984 259.713 23.464C259.441 22.944 259.305 22.352 259.305 21.688ZM264.873 21.7C264.873 21.204 264.773 20.772 264.573 20.404C264.373 20.036 264.101 19.756 263.757 19.564C263.421 19.364 263.049 19.264 262.641 19.264C262.233 19.264 261.861 19.36 261.525 19.552C261.189 19.744 260.921 20.024 260.721 20.392C260.521 20.76 260.421 21.192 260.421 21.688C260.421 22.192 260.521 22.632 260.721 23.008C260.921 23.376 261.189 23.66 261.525 23.86C261.861 24.052 262.233 24.148 262.641 24.148C263.049 24.148 263.421 24.052 263.757 23.86C264.101 23.66 264.373 23.376 264.573 23.008C264.773 22.632 264.873 22.196 264.873 21.7ZM271.026 18.304C271.826 18.304 272.474 18.548 272.97 19.036C273.466 19.516 273.714 20.212 273.714 21.124V25H272.634V21.28C272.634 20.624 272.47 20.124 272.142 19.78C271.814 19.428 271.366 19.252 270.798 19.252C270.222 19.252 269.762 19.432 269.418 19.792C269.082 20.152 268.914 20.676 268.914 21.364V25H267.822V18.424H268.914V19.36C269.13 19.024 269.422 18.764 269.79 18.58C270.166 18.396 270.578 18.304 271.026 18.304ZM281.349 25.084C280.797 25.084 280.301 24.988 279.861 24.796C279.429 24.596 279.089 24.324 278.841 23.98C278.593 23.628 278.465 23.224 278.457 22.768H279.621C279.661 23.16 279.821 23.492 280.101 23.764C280.389 24.028 280.805 24.16 281.349 24.16C281.869 24.16 282.277 24.032 282.573 23.776C282.877 23.512 283.029 23.176 283.029 22.768C283.029 22.448 282.941 22.188 282.765 21.988C282.589 21.788 282.369 21.636 282.105 21.532C281.841 21.428 281.485 21.316 281.037 21.196C280.485 21.052 280.041 20.908 279.705 20.764C279.377 20.62 279.093 20.396 278.853 20.092C278.621 19.78 278.505 19.364 278.505 18.844C278.505 18.388 278.621 17.984 278.853 17.632C279.085 17.28 279.409 17.008 279.825 16.816C280.249 16.624 280.733 16.528 281.277 16.528C282.061 16.528 282.701 16.724 283.197 17.116C283.701 17.508 283.985 18.028 284.049 18.676H282.849C282.809 18.356 282.641 18.076 282.345 17.836C282.049 17.588 281.657 17.464 281.169 17.464C280.713 17.464 280.341 17.584 280.053 17.824C279.765 18.056 279.621 18.384 279.621 18.808C279.621 19.112 279.705 19.36 279.873 19.552C280.049 19.744 280.261 19.892 280.509 19.996C280.765 20.092 281.121 20.204 281.577 20.332C282.129 20.484 282.573 20.636 282.909 20.788C283.245 20.932 283.533 21.16 283.773 21.472C284.013 21.776 284.133 22.192 284.133 22.72C284.133 23.128 284.025 23.512 283.809 23.872C283.593 24.232 283.273 24.524 282.849 24.748C282.425 24.972 281.925 25.084 281.349 25.084ZM285.332 21.7C285.332 21.02 285.468 20.428 285.74 19.924C286.012 19.412 286.388 19.016 286.868 18.736C287.356 18.456 287.912 18.316 288.536 18.316C289.344 18.316 290.008 18.512 290.528 18.904C291.056 19.296 291.404 19.84 291.572 20.536H290.396C290.284 20.136 290.064 19.82 289.736 19.588C289.416 19.356 289.016 19.24 288.536 19.24C287.912 19.24 287.408 19.456 287.024 19.888C286.64 20.312 286.448 20.916 286.448 21.7C286.448 22.492 286.64 23.104 287.024 23.536C287.408 23.968 287.912 24.184 288.536 24.184C289.016 24.184 289.416 24.072 289.736 23.848C290.056 23.624 290.276 23.304 290.396 22.888H291.572C291.396 23.56 291.044 24.1 290.516 24.508C289.988 24.908 289.328 25.108 288.536 25.108C287.912 25.108 287.356 24.968 286.868 24.688C286.388 24.408 286.012 24.012 285.74 23.5C285.468 22.988 285.332 22.388 285.332 21.7ZM296.293 18.304C296.789 18.304 297.237 18.412 297.637 18.628C298.037 18.836 298.349 19.152 298.573 19.576C298.805 20 298.921 20.516 298.921 21.124V25H297.841V21.28C297.841 20.624 297.677 20.124 297.349 19.78C297.021 19.428 296.573 19.252 296.005 19.252C295.429 19.252 294.969 19.432 294.625 19.792C294.289 20.152 294.121 20.676 294.121 21.364V25H293.029V16.12H294.121V19.36C294.337 19.024 294.633 18.764 295.009 18.58C295.393 18.396 295.821 18.304 296.293 18.304ZM306.537 18.424V25H305.445V24.028C305.237 24.364 304.945 24.628 304.569 24.82C304.201 25.004 303.793 25.096 303.345 25.096C302.833 25.096 302.373 24.992 301.965 24.784C301.557 24.568 301.233 24.248 300.993 23.824C300.761 23.4 300.645 22.884 300.645 22.276V18.424H301.725V22.132C301.725 22.78 301.889 23.28 302.217 23.632C302.545 23.976 302.993 24.148 303.561 24.148C304.145 24.148 304.605 23.968 304.941 23.608C305.277 23.248 305.445 22.724 305.445 22.036V18.424H306.537ZM309.473 16.12V25H308.381V16.12H309.473ZM312.666 19.324V23.2C312.666 23.52 312.734 23.748 312.87 23.884C313.006 24.012 313.242 24.076 313.578 24.076H314.382V25H313.398C312.79 25 312.334 24.86 312.03 24.58C311.726 24.3 311.574 23.84 311.574 23.2V19.324H310.722V18.424H311.574V16.768H312.666V18.424H314.382V19.324H312.666ZM316.521 24.1H319.749V25H315.273V24.1L318.465 19.312H315.297V18.424H319.725V19.312L316.521 24.1Z" fill="white"/>
<path d="M233.822 30.3332C235.246 30.3332 236 29.5793 236 28.156V21.3255C236 19.9022 235.246 19.1418 233.822 19.1418H232.179C231.683 19.1418 231.509 19.0573 231.186 18.7259L230.677 18.1929C230.336 17.8355 229.988 17.6665 229.337 17.6665H226.637C225.986 17.6665 225.638 17.8355 225.297 18.1929L224.788 18.7259C224.466 19.0573 224.292 19.1418 223.789 19.1418H222.184C220.76 19.1418 220 19.9022 220 21.3255V28.156C220 29.5793 220.76 30.3332 222.184 30.3332H233.822ZM228.003 28.221C226.089 28.221 224.549 26.6742 224.549 24.731C224.549 22.7943 226.089 21.241 228.003 21.241C229.917 21.241 231.451 22.7943 231.451 24.731C231.451 26.6742 229.917 28.221 228.003 28.221ZM232.739 23.2297C232.256 23.2297 231.857 22.8398 231.857 22.3458C231.857 21.8714 232.263 21.462 232.739 21.462C233.21 21.462 233.616 21.8714 233.616 22.3458C233.616 22.8333 233.216 23.2232 232.739 23.2297ZM228.003 26.9277C229.208 26.9277 230.175 25.9528 230.175 24.731C230.175 23.5157 229.208 22.5343 228.003 22.5343C226.798 22.5343 225.832 23.5157 225.832 24.731C225.832 25.9528 226.805 26.9277 228.003 26.9277Z" fill="white"/>
<path d="M370.016 24.112H372.944V25H368.924V16.636H370.016V24.112ZM380.104 21.46C380.104 21.668 380.092 21.888 380.068 22.12H374.812C374.852 22.768 375.072 23.276 375.472 23.644C375.88 24.004 376.372 24.184 376.948 24.184C377.42 24.184 377.812 24.076 378.124 23.86C378.444 23.636 378.668 23.34 378.796 22.972H379.972C379.796 23.604 379.444 24.12 378.916 24.52C378.388 24.912 377.732 25.108 376.948 25.108C376.324 25.108 375.764 24.968 375.268 24.688C374.78 24.408 374.396 24.012 374.116 23.5C373.836 22.98 373.696 22.38 373.696 21.7C373.696 21.02 373.832 20.424 374.104 19.912C374.376 19.4 374.756 19.008 375.244 18.736C375.74 18.456 376.308 18.316 376.948 18.316C377.572 18.316 378.124 18.452 378.604 18.724C379.084 18.996 379.452 19.372 379.708 19.852C379.972 20.324 380.104 20.86 380.104 21.46ZM378.976 21.232C378.976 20.816 378.884 20.46 378.7 20.164C378.516 19.86 378.264 19.632 377.944 19.48C377.632 19.32 377.284 19.24 376.9 19.24C376.348 19.24 375.876 19.416 375.484 19.768C375.1 20.12 374.88 20.608 374.824 21.232H378.976ZM381.137 21.688C381.137 21.016 381.273 20.428 381.545 19.924C381.817 19.412 382.189 19.016 382.661 18.736C383.141 18.456 383.673 18.316 384.257 18.316C384.833 18.316 385.333 18.44 385.757 18.688C386.181 18.936 386.497 19.248 386.705 19.624V18.424H387.809V25H386.705V23.776C386.489 24.16 386.165 24.48 385.733 24.736C385.309 24.984 384.813 25.108 384.245 25.108C383.661 25.108 383.133 24.964 382.661 24.676C382.189 24.388 381.817 23.984 381.545 23.464C381.273 22.944 381.137 22.352 381.137 21.688ZM386.705 21.7C386.705 21.204 386.605 20.772 386.405 20.404C386.205 20.036 385.933 19.756 385.589 19.564C385.253 19.364 384.881 19.264 384.473 19.264C384.065 19.264 383.693 19.36 383.357 19.552C383.021 19.744 382.753 20.024 382.553 20.392C382.353 20.76 382.253 21.192 382.253 21.688C382.253 22.192 382.353 22.632 382.553 23.008C382.753 23.376 383.021 23.66 383.357 23.86C383.693 24.052 384.065 24.148 384.473 24.148C384.881 24.148 385.253 24.052 385.589 23.86C385.933 23.66 386.205 23.376 386.405 23.008C386.605 22.632 386.705 22.196 386.705 21.7ZM392.918 18.304C393.414 18.304 393.862 18.412 394.262 18.628C394.662 18.836 394.974 19.152 395.198 19.576C395.43 20 395.546 20.516 395.546 21.124V25H394.466V21.28C394.466 20.624 394.302 20.124 393.974 19.78C393.646 19.428 393.198 19.252 392.63 19.252C392.054 19.252 391.594 19.432 391.25 19.792C390.914 20.152 390.746 20.676 390.746 21.364V25H389.654V16.12H390.746V19.36C390.962 19.024 391.258 18.764 391.634 18.58C392.018 18.396 392.446 18.304 392.918 18.304ZM403.181 25.084C402.629 25.084 402.133 24.988 401.693 24.796C401.261 24.596 400.921 24.324 400.673 23.98C400.425 23.628 400.297 23.224 400.289 22.768H401.453C401.493 23.16 401.653 23.492 401.933 23.764C402.221 24.028 402.637 24.16 403.181 24.16C403.701 24.16 404.109 24.032 404.405 23.776C404.709 23.512 404.861 23.176 404.861 22.768C404.861 22.448 404.773 22.188 404.597 21.988C404.421 21.788 404.201 21.636 403.937 21.532C403.673 21.428 403.317 21.316 402.869 21.196C402.317 21.052 401.873 20.908 401.537 20.764C401.209 20.62 400.925 20.396 400.685 20.092C400.453 19.78 400.337 19.364 400.337 18.844C400.337 18.388 400.453 17.984 400.685 17.632C400.917 17.28 401.241 17.008 401.657 16.816C402.081 16.624 402.565 16.528 403.109 16.528C403.893 16.528 404.533 16.724 405.029 17.116C405.533 17.508 405.817 18.028 405.881 18.676H404.681C404.641 18.356 404.473 18.076 404.177 17.836C403.881 17.588 403.489 17.464 403.001 17.464C402.545 17.464 402.173 17.584 401.885 17.824C401.597 18.056 401.453 18.384 401.453 18.808C401.453 19.112 401.537 19.36 401.705 19.552C401.881 19.744 402.093 19.892 402.341 19.996C402.597 20.092 402.953 20.204 403.409 20.332C403.961 20.484 404.405 20.636 404.741 20.788C405.077 20.932 405.365 21.16 405.605 21.472C405.845 21.776 405.965 22.192 405.965 22.72C405.965 23.128 405.857 23.512 405.641 23.872C405.425 24.232 405.105 24.524 404.681 24.748C404.257 24.972 403.757 25.084 403.181 25.084ZM408.904 19.324V23.2C408.904 23.52 408.972 23.748 409.108 23.884C409.244 24.012 409.48 24.076 409.816 24.076H410.62V25H409.636C409.028 25 408.572 24.86 408.268 24.58C407.964 24.3 407.812 23.84 407.812 23.2V19.324H406.96V18.424H407.812V16.768H408.904V18.424H410.62V19.324H408.904ZM414.812 25.108C414.196 25.108 413.636 24.968 413.132 24.688C412.636 24.408 412.244 24.012 411.956 23.5C411.676 22.98 411.536 22.38 411.536 21.7C411.536 21.028 411.68 20.436 411.968 19.924C412.264 19.404 412.664 19.008 413.168 18.736C413.672 18.456 414.236 18.316 414.86 18.316C415.484 18.316 416.048 18.456 416.552 18.736C417.056 19.008 417.452 19.4 417.74 19.912C418.036 20.424 418.184 21.02 418.184 21.7C418.184 22.38 418.032 22.98 417.728 23.5C417.432 24.012 417.028 24.408 416.516 24.688C416.004 24.968 415.436 25.108 414.812 25.108ZM414.812 24.148C415.204 24.148 415.572 24.056 415.916 23.872C416.26 23.688 416.536 23.412 416.744 23.044C416.96 22.676 417.068 22.228 417.068 21.7C417.068 21.172 416.964 20.724 416.756 20.356C416.548 19.988 416.276 19.716 415.94 19.54C415.604 19.356 415.24 19.264 414.848 19.264C414.448 19.264 414.08 19.356 413.744 19.54C413.416 19.716 413.152 19.988 412.952 20.356C412.752 20.724 412.652 21.172 412.652 21.7C412.652 22.236 412.748 22.688 412.94 23.056C413.14 23.424 413.404 23.7 413.732 23.884C414.06 24.06 414.42 24.148 414.812 24.148ZM422.295 19.324H420.915V25H419.823V19.324H418.971V18.424H419.823V17.956C419.823 17.22 420.011 16.684 420.387 16.348C420.771 16.004 421.383 15.832 422.223 15.832V16.744C421.743 16.744 421.403 16.84 421.203 17.032C421.011 17.216 420.915 17.524 420.915 17.956V18.424H422.295V19.324ZM426.245 19.324H424.865V25H423.773V19.324H422.921V18.424H423.773V17.956C423.773 17.22 423.961 16.684 424.337 16.348C424.721 16.004 425.333 15.832 426.173 15.832V16.744C425.693 16.744 425.353 16.84 425.153 17.032C424.961 17.216 424.865 17.524 424.865 17.956V18.424H426.245V19.324Z" fill="white"/>
<g clip-path="url(#clip0_1_239)">
<path d="M352.004 23.7752C353.917 23.7752 355.509 22.0474 355.509 19.8347C355.509 17.6749 353.908 16 352.004 16C350.101 16 348.483 17.7014 348.491 19.8523C348.491 22.0474 350.092 23.7752 352.004 23.7752ZM357.724 32C358.728 32 359.333 31.5063 359.333 30.6953C359.333 28.4298 356.486 25.3267 351.996 25.3267C347.513 25.3267 344.667 28.4298 344.667 30.6953C344.667 31.5063 345.272 32 346.276 32H357.724Z" fill="white"/>
</g>
<path d="M472.516 20.812C472.516 19.996 472.7 19.264 473.068 18.616C473.436 17.96 473.936 17.448 474.568 17.08C475.208 16.712 475.916 16.528 476.692 16.528C477.604 16.528 478.4 16.748 479.08 17.188C479.76 17.628 480.256 18.252 480.568 19.06H479.26C479.028 18.556 478.692 18.168 478.252 17.896C477.82 17.624 477.3 17.488 476.692 17.488C476.108 17.488 475.584 17.624 475.12 17.896C474.656 18.168 474.292 18.556 474.028 19.06C473.764 19.556 473.632 20.14 473.632 20.812C473.632 21.476 473.764 22.06 474.028 22.564C474.292 23.06 474.656 23.444 475.12 23.716C475.584 23.988 476.108 24.124 476.692 24.124C477.3 24.124 477.82 23.992 478.252 23.728C478.692 23.456 479.028 23.068 479.26 22.564H480.568C480.256 23.364 479.76 23.984 479.08 24.424C478.4 24.856 477.604 25.072 476.692 25.072C475.916 25.072 475.208 24.892 474.568 24.532C473.936 24.164 473.436 23.656 473.068 23.008C472.7 22.36 472.516 21.628 472.516 20.812ZM481.786 21.688C481.786 21.016 481.922 20.428 482.194 19.924C482.466 19.412 482.838 19.016 483.31 18.736C483.79 18.456 484.322 18.316 484.906 18.316C485.482 18.316 485.982 18.44 486.406 18.688C486.83 18.936 487.146 19.248 487.354 19.624V18.424H488.458V25H487.354V23.776C487.138 24.16 486.814 24.48 486.382 24.736C485.958 24.984 485.462 25.108 484.894 25.108C484.31 25.108 483.782 24.964 483.31 24.676C482.838 24.388 482.466 23.984 482.194 23.464C481.922 22.944 481.786 22.352 481.786 21.688ZM487.354 21.7C487.354 21.204 487.254 20.772 487.054 20.404C486.854 20.036 486.582 19.756 486.238 19.564C485.902 19.364 485.53 19.264 485.122 19.264C484.714 19.264 484.342 19.36 484.006 19.552C483.67 19.744 483.402 20.024 483.202 20.392C483.002 20.76 482.902 21.192 482.902 21.688C482.902 22.192 483.002 22.632 483.202 23.008C483.402 23.376 483.67 23.66 484.006 23.86C484.342 24.052 484.714 24.148 485.122 24.148C485.53 24.148 485.902 24.052 486.238 23.86C486.582 23.66 486.854 23.376 487.054 23.008C487.254 22.632 487.354 22.196 487.354 21.7ZM491.635 19.324V23.2C491.635 23.52 491.703 23.748 491.839 23.884C491.975 24.012 492.211 24.076 492.547 24.076H493.351V25H492.367C491.759 25 491.303 24.86 490.999 24.58C490.695 24.3 490.543 23.84 490.543 23.2V19.324H489.691V18.424H490.543V16.768H491.635V18.424H493.351V19.324H491.635ZM494.266 21.688C494.266 21.016 494.402 20.428 494.674 19.924C494.946 19.412 495.318 19.016 495.79 18.736C496.27 18.456 496.802 18.316 497.386 18.316C497.962 18.316 498.462 18.44 498.886 18.688C499.31 18.936 499.626 19.248 499.834 19.624V18.424H500.938V25H499.834V23.776C499.618 24.16 499.294 24.48 498.862 24.736C498.438 24.984 497.942 25.108 497.374 25.108C496.79 25.108 496.262 24.964 495.79 24.676C495.318 24.388 494.946 23.984 494.674 23.464C494.402 22.944 494.266 22.352 494.266 21.688ZM499.834 21.7C499.834 21.204 499.734 20.772 499.534 20.404C499.334 20.036 499.062 19.756 498.718 19.564C498.382 19.364 498.01 19.264 497.602 19.264C497.194 19.264 496.822 19.36 496.486 19.552C496.15 19.744 495.882 20.024 495.682 20.392C495.482 20.76 495.382 21.192 495.382 21.688C495.382 22.192 495.482 22.632 495.682 23.008C495.882 23.376 496.15 23.66 496.486 23.86C496.822 24.052 497.194 24.148 497.602 24.148C498.01 24.148 498.382 24.052 498.718 23.86C499.062 23.66 499.334 23.376 499.534 23.008C499.734 22.632 499.834 22.196 499.834 21.7ZM503.875 16.12V25H502.783V16.12H503.875ZM506.301 17.356C506.093 17.356 505.917 17.284 505.773 17.14C505.629 16.996 505.557 16.82 505.557 16.612C505.557 16.404 505.629 16.228 505.773 16.084C505.917 15.94 506.093 15.868 506.301 15.868C506.501 15.868 506.669 15.94 506.805 16.084C506.949 16.228 507.021 16.404 507.021 16.612C507.021 16.82 506.949 16.996 506.805 17.14C506.669 17.284 506.501 17.356 506.301 17.356ZM506.829 18.424V25H505.737V18.424H506.829ZM511.894 18.304C512.694 18.304 513.342 18.548 513.838 19.036C514.334 19.516 514.582 20.212 514.582 21.124V25H513.502V21.28C513.502 20.624 513.338 20.124 513.01 19.78C512.682 19.428 512.234 19.252 511.666 19.252C511.09 19.252 510.63 19.432 510.286 19.792C509.95 20.152 509.782 20.676 509.782 21.364V25H508.69V18.424H509.782V19.36C509.998 19.024 510.29 18.764 510.658 18.58C511.034 18.396 511.446 18.304 511.894 18.304ZM515.957 21.688C515.957 21.016 516.093 20.428 516.365 19.924C516.637 19.412 517.009 19.016 517.481 18.736C517.961 18.456 518.493 18.316 519.077 18.316C519.653 18.316 520.153 18.44 520.577 18.688C521.001 18.936 521.317 19.248 521.525 19.624V18.424H522.629V25H521.525V23.776C521.309 24.16 520.985 24.48 520.553 24.736C520.129 24.984 519.633 25.108 519.065 25.108C518.481 25.108 517.953 24.964 517.481 24.676C517.009 24.388 516.637 23.984 516.365 23.464C516.093 22.944 515.957 22.352 515.957 21.688ZM521.525 21.7C521.525 21.204 521.425 20.772 521.225 20.404C521.025 20.036 520.753 19.756 520.409 19.564C520.073 19.364 519.701 19.264 519.293 19.264C518.885 19.264 518.513 19.36 518.177 19.552C517.841 19.744 517.573 20.024 517.373 20.392C517.173 20.76 517.073 21.192 517.073 21.688C517.073 22.192 517.173 22.632 517.373 23.008C517.573 23.376 517.841 23.66 518.177 23.86C518.513 24.052 518.885 24.148 519.293 24.148C519.701 24.148 520.073 24.052 520.409 23.86C520.753 23.66 521.025 23.376 521.225 23.008C521.425 22.632 521.525 22.196 521.525 21.7ZM525.603 23.488L524.259 26.716H523.527L524.403 23.488H525.603ZM529.645 20.812C529.645 19.996 529.829 19.264 530.197 18.616C530.565 17.96 531.065 17.448 531.697 17.08C532.337 16.712 533.045 16.528 533.821 16.528C534.733 16.528 535.529 16.748 536.209 17.188C536.889 17.628 537.385 18.252 537.697 19.06H536.389C536.157 18.556 535.821 18.168 535.381 17.896C534.949 17.624 534.429 17.488 533.821 17.488C533.237 17.488 532.713 17.624 532.249 17.896C531.785 18.168 531.421 18.556 531.157 19.06C530.893 19.556 530.761 20.14 530.761 20.812C530.761 21.476 530.893 22.06 531.157 22.564C531.421 23.06 531.785 23.444 532.249 23.716C532.713 23.988 533.237 24.124 533.821 24.124C534.429 24.124 534.949 23.992 535.381 23.728C535.821 23.456 536.157 23.068 536.389 22.564H537.697C537.385 23.364 536.889 23.984 536.209 24.424C535.529 24.856 534.733 25.072 533.821 25.072C533.045 25.072 532.337 24.892 531.697 24.532C531.065 24.164 530.565 23.656 530.197 23.008C529.829 22.36 529.645 21.628 529.645 20.812ZM538.914 21.688C538.914 21.016 539.05 20.428 539.322 19.924C539.594 19.412 539.966 19.016 540.438 18.736C540.918 18.456 541.45 18.316 542.034 18.316C542.61 18.316 543.11 18.44 543.534 18.688C543.958 18.936 544.274 19.248 544.482 19.624V18.424H545.586V25H544.482V23.776C544.266 24.16 543.942 24.48 543.51 24.736C543.086 24.984 542.59 25.108 542.022 25.108C541.438 25.108 540.91 24.964 540.438 24.676C539.966 24.388 539.594 23.984 539.322 23.464C539.05 22.944 538.914 22.352 538.914 21.688ZM544.482 21.7C544.482 21.204 544.382 20.772 544.182 20.404C543.982 20.036 543.71 19.756 543.366 19.564C543.03 19.364 542.658 19.264 542.25 19.264C541.842 19.264 541.47 19.36 541.134 19.552C540.798 19.744 540.53 20.024 540.33 20.392C540.13 20.76 540.03 21.192 540.03 21.688C540.03 22.192 540.13 22.632 540.33 23.008C540.53 23.376 540.798 23.66 541.134 23.86C541.47 24.052 541.842 24.148 542.25 24.148C542.658 24.148 543.03 24.052 543.366 23.86C543.71 23.66 543.982 23.376 544.182 23.008C544.382 22.632 544.482 22.196 544.482 21.7ZM548.524 16.12V25H547.432V16.12H548.524ZM550.949 17.356C550.741 17.356 550.565 17.284 550.421 17.14C550.277 16.996 550.205 16.82 550.205 16.612C550.205 16.404 550.277 16.228 550.421 16.084C550.565 15.94 550.741 15.868 550.949 15.868C551.149 15.868 551.317 15.94 551.453 16.084C551.597 16.228 551.669 16.404 551.669 16.612C551.669 16.82 551.597 16.996 551.453 17.14C551.317 17.284 551.149 17.356 550.949 17.356ZM551.477 18.424V25H550.385V18.424H551.477ZM556.014 19.324H554.634V25H553.542V19.324H552.69V18.424H553.542V17.956C553.542 17.22 553.73 16.684 554.106 16.348C554.49 16.004 555.102 15.832 555.942 15.832V16.744C555.462 16.744 555.122 16.84 554.922 17.032C554.73 17.216 554.634 17.524 554.634 17.956V18.424H556.014V19.324ZM560.155 25.108C559.539 25.108 558.979 24.968 558.475 24.688C557.979 24.408 557.587 24.012 557.299 23.5C557.019 22.98 556.879 22.38 556.879 21.7C556.879 21.028 557.023 20.436 557.311 19.924C557.607 19.404 558.007 19.008 558.511 18.736C559.015 18.456 559.579 18.316 560.203 18.316C560.827 18.316 561.391 18.456 561.895 18.736C562.399 19.008 562.795 19.4 563.083 19.912C563.379 20.424 563.527 21.02 563.527 21.7C563.527 22.38 563.375 22.98 563.071 23.5C562.775 24.012 562.371 24.408 561.859 24.688C561.347 24.968 560.779 25.108 560.155 25.108ZM560.155 24.148C560.547 24.148 560.915 24.056 561.259 23.872C561.603 23.688 561.879 23.412 562.087 23.044C562.303 22.676 562.411 22.228 562.411 21.7C562.411 21.172 562.307 20.724 562.099 20.356C561.891 19.988 561.619 19.716 561.283 19.54C560.947 19.356 560.583 19.264 560.191 19.264C559.791 19.264 559.423 19.356 559.087 19.54C558.759 19.716 558.495 19.988 558.295 20.356C558.095 20.724 557.995 21.172 557.995 21.7C557.995 22.236 558.091 22.688 558.283 23.056C558.483 23.424 558.747 23.7 559.075 23.884C559.403 24.06 559.763 24.148 560.155 24.148ZM566.055 19.492C566.247 19.116 566.519 18.824 566.871 18.616C567.231 18.408 567.667 18.304 568.179 18.304V19.432H567.891C566.667 19.432 566.055 20.096 566.055 21.424V25H564.963V18.424H566.055V19.492ZM572.644 18.304C573.444 18.304 574.092 18.548 574.588 19.036C575.084 19.516 575.332 20.212 575.332 21.124V25H574.252V21.28C574.252 20.624 574.088 20.124 573.76 19.78C573.432 19.428 572.984 19.252 572.416 19.252C571.84 19.252 571.38 19.432 571.036 19.792C570.7 20.152 570.532 20.676 570.532 21.364V25H569.44V18.424H570.532V19.36C570.748 19.024 571.04 18.764 571.408 18.58C571.784 18.396 572.196 18.304 572.644 18.304ZM577.679 17.356C577.471 17.356 577.295 17.284 577.151 17.14C577.007 16.996 576.935 16.82 576.935 16.612C576.935 16.404 577.007 16.228 577.151 16.084C577.295 15.94 577.471 15.868 577.679 15.868C577.879 15.868 578.047 15.94 578.183 16.084C578.327 16.228 578.399 16.404 578.399 16.612C578.399 16.82 578.327 16.996 578.183 17.14C578.047 17.284 577.879 17.356 577.679 17.356ZM578.207 18.424V25H577.115V18.424H578.207ZM579.661 21.688C579.661 21.016 579.797 20.428 580.069 19.924C580.341 19.412 580.713 19.016 581.185 18.736C581.665 18.456 582.197 18.316 582.781 18.316C583.357 18.316 583.857 18.44 584.281 18.688C584.705 18.936 585.021 19.248 585.229 19.624V18.424H586.333V25H585.229V23.776C585.013 24.16 584.689 24.48 584.257 24.736C583.833 24.984 583.337 25.108 582.769 25.108C582.185 25.108 581.657 24.964 581.185 24.676C580.713 24.388 580.341 23.984 580.069 23.464C579.797 22.944 579.661 22.352 579.661 21.688ZM585.229 21.7C585.229 21.204 585.129 20.772 584.929 20.404C584.729 20.036 584.457 19.756 584.113 19.564C583.777 19.364 583.405 19.264 582.997 19.264C582.589 19.264 582.217 19.36 581.881 19.552C581.545 19.744 581.277 20.024 581.077 20.392C580.877 20.76 580.777 21.192 580.777 21.688C580.777 22.192 580.877 22.632 581.077 23.008C581.277 23.376 581.545 23.66 581.881 23.86C582.217 24.052 582.589 24.148 582.997 24.148C583.405 24.148 583.777 24.052 584.113 23.86C584.457 23.66 584.729 23.376 584.929 23.008C585.129 22.632 585.229 22.196 585.229 21.7Z" fill="white"/>
<g clip-path="url(#clip1_1_239)">
<path d="M457.845 31.0731L463.79 18.1204C464.495 16.5927 463.32 15.5282 461.83 16.2108L448.862 22.1996C447.517 22.8172 447.801 24.7267 449.332 24.7349L455.147 24.7511C455.245 24.7511 455.261 24.7593 455.261 24.8649L455.277 30.6749C455.277 32.1863 457.18 32.5195 457.845 31.0731Z" fill="white"/>
</g>
<defs>
<clipPath id="clip0_1_239">
<rect width="16" height="16" fill="white" transform="translate(344 16)"/>
</clipPath>
<clipPath id="clip1_1_239">
<rect width="16" height="16" fill="white" transform="translate(448 16)"/>
</clipPath>
</defs>
</svg>
